<svg id="visual" viewBox="0 0 900 600" width="900" height="600" xmlns="http://www.w3.org/2000/svg" xmlns:xlink="http://www.w3.org/1999/xlink" version="1.1"><rect x="0" y="0" width="900" height="600" fill="#fff"></rect><defs><linearGradient id="grad1_0" x1="33.3%" y1="0%" x2="100%" y2="100%"><stop offset="20%" stop-color="#88e5ea" stop-opacity="1"></stop><stop offset="80%" stop-color="#88e5ea" stop-opacity="1"></stop></linearGradient></defs><defs><linearGradient id="grad1_1" x1="33.3%" y1="0%" x2="100%" y2="100%"><stop offset="20%" stop-color="#88e5ea" stop-opacity="1"></stop><stop offset="80%" stop-color="#9ce9ed" stop-opacity="1"></stop></linearGradient></defs><defs><linearGradient id="grad1_2" x1="33.3%" y1="0%" x2="100%" y2="100%"><stop offset="20%" stop-color="#aeedf0" stop-opacity="1"></stop><stop offset="80%" stop-color="#9ce9ed" stop-opacity="1"></stop></linearGradient></defs><defs><linearGradient id="grad1_3" x1="33.3%" y1="0%" x2="100%" y2="100%"><stop offset="20%" stop-color="#aeedf0" stop-opacity="1"></stop><stop offset="80%" stop-color="#bff1f3" stop-opacity="1"></stop></linearGradient></defs><defs><linearGradient id="grad1_4" x1="33.3%" y1="0%" x2="100%" y2="100%"><stop offset="20%" stop-color="#d0f4f6" stop-opacity="1"></stop><stop offset="80%" stop-color="#bff1f3" stop-opacity="1"></stop></linearGradient></defs><defs><linearGradient id="grad1_5" x1="33.3%" y1="0%" x2="100%" y2="100%"><stop offset="20%" stop-color="#d0f4f6" stop-opacity="1"></stop><stop offset="80%" stop-color="#e0f8f9" stop-opacity="1"></stop></linearGradient></defs><defs><linearGradient id="grad1_6" x1="33.3%" y1="0%" x2="100%" y2="100%"><stop offset="20%" stop-color="#f0fbfc" stop-opacity="1"></stop><stop offset="80%" stop-color="#e0f8f9" stop-opacity="1"></stop></linearGradient></defs><defs><linearGradient id="grad1_7" x1="33.3%" y1="0%" x2="100%" y2="100%"><stop offset="20%" stop-color="#f0fbfc" stop-opacity="1"></stop><stop offset="80%" stop-color="#ffffff" stop-opacity="1"></stop></linearGradient></defs><defs><linearGradient id="grad2_0" x1="0%" y1="0%" x2="66.7%" y2="100%"><stop offset="20%" stop-color="#88e5ea" stop-opacity="1"></stop><stop offset="80%" stop-color="#88e5ea" stop-opacity="1"></stop></linearGradient></defs><defs><linearGradient id="grad2_1" x1="0%" y1="0%" x2="66.7%" y2="100%"><stop offset="20%" stop-color="#9ce9ed" stop-opacity="1"></stop><stop offset="80%" stop-color="#88e5ea" stop-opacity="1"></stop></linearGradient></defs><defs><linearGradient id="grad2_2" x1="0%" y1="0%" x2="66.7%" y2="100%"><stop offset="20%" stop-color="#9ce9ed" stop-opacity="1"></stop><stop offset="80%" stop-color="#aeedf0" stop-opacity="1"></stop></linearGradient></defs><defs><linearGradient id="grad2_3" x1="0%" y1="0%" x2="66.7%" y2="100%"><stop offset="20%" stop-color="#bff1f3" stop-opacity="1"></stop><stop offset="80%" stop-color="#aeedf0" stop-opacity="1"></stop></linearGradient></defs><defs><linearGradient id="grad2_4" x1="0%" y1="0%" x2="66.7%" y2="100%"><stop offset="20%" stop-color="#bff1f3" stop-opacity="1"></stop><stop offset="80%" stop-color="#d0f4f6" stop-opacity="1"></stop></linearGradient></defs><defs><linearGradient id="grad2_5" x1="0%" y1="0%" x2="66.7%" y2="100%"><stop offset="20%" stop-color="#e0f8f9" stop-opacity="1"></stop><stop offset="80%" stop-color="#d0f4f6" stop-opacity="1"></stop></linearGradient></defs><defs><linearGradient id="grad2_6" x1="0%" y1="0%" x2="66.7%" y2="100%"><stop offset="20%" stop-color="#e0f8f9" stop-opacity="1"></stop><stop offset="80%" stop-color="#f0fbfc" stop-opacity="1"></stop></linearGradient></defs><defs><linearGradient id="grad2_7" x1="0%" y1="0%" x2="66.7%" y2="100%"><stop offset="20%" stop-color="#ffffff" stop-opacity="1"></stop><stop offset="80%" stop-color="#f0fbfc" stop-opacity="1"></stop></linearGradient></defs><g transform="translate(900, 0)"><path d="M0 432.7C-43.7 395.9 -87.4 359.2 -142.4 343.7C-197.3 328.2 -263.5 334 -305.9 305.9C-348.4 277.8 -367.2 215.8 -384.3 159.2C-401.5 102.6 -417.1 51.3 -432.7 0L0 0Z" fill="#f7fdfd"></path><path d="M0 378.6C-38.2 346.4 -76.5 314.3 -124.6 300.7C-172.6 287.2 -230.5 292.3 -267.7 267.7C-304.9 243.1 -321.3 188.9 -336.3 139.3C-351.3 89.7 -364.9 44.9 -378.6 0L0 0Z" fill="#e8fafa"></path><path d="M0 324.5C-32.8 296.9 -65.6 269.4 -106.8 257.8C-148 246.2 -197.6 250.5 -229.5 229.5C-261.3 208.4 -275.4 161.9 -288.3 119.4C-301.1 76.9 -312.8 38.5 -324.5 0L0 0Z" fill="#d8f6f7"></path><path d="M0 270.4C-27.3 247.4 -54.6 224.5 -89 214.8C-123.3 205.1 -164.7 208.8 -191.2 191.2C-217.8 173.7 -229.5 134.9 -240.2 99.5C-250.9 64.1 -260.7 32 -270.4 0L0 0Z" fill="#c8f2f4"></path><path d="M0 216.3C-21.9 198 -43.7 179.6 -71.2 171.8C-98.6 164.1 -131.7 167 -153 153C-174.2 138.9 -183.6 107.9 -192.2 79.6C-200.8 51.3 -208.5 25.6 -216.3 0L0 0Z" fill="#b7eff1"></path><path d="M0 162.2C-16.4 148.5 -32.8 134.7 -53.4 128.9C-74 123.1 -98.8 125.3 -114.7 114.7C-130.7 104.2 -137.7 80.9 -144.1 59.7C-150.6 38.5 -156.4 19.2 -162.2 0L0 0Z" fill="#a5ebee"></path><path d="M0 108.2C-10.9 99 -21.9 89.8 -35.6 85.9C-49.3 82.1 -65.9 83.5 -76.5 76.5C-87.1 69.5 -91.8 54 -96.1 39.8C-100.4 25.6 -104.3 12.8 -108.2 0L0 0Z" fill="#92e7eb"></path><path d="M0 54.1C-5.5 49.5 -10.9 44.9 -17.8 43C-24.7 41 -32.9 41.8 -38.2 38.2C-43.6 34.7 -45.9 27 -48 19.9C-50.2 12.8 -52.1 6.4 -54.1 0L0 0Z" fill="#88e5ea"></path></g><g transform="translate(0, 600)"><path d="M0 -432.7C55.1 -416.3 110.3 -399.9 154.6 -373.2C199 -346.6 232.5 -309.7 275.8 -275.8C319 -241.9 372 -211 399.7 -165.6C427.5 -120.1 430.1 -60.1 432.7 0L0 0Z" fill="#f7fdfd"></path><path d="M0 -378.6C48.2 -364.2 96.5 -349.9 135.3 -326.6C174.1 -303.3 203.5 -271 241.3 -241.3C279.1 -211.6 325.5 -184.7 349.8 -144.9C374.1 -105.1 376.3 -52.6 378.6 0L0 0Z" fill="#e8fafa"></path><path d="M0 -324.5C41.3 -312.2 82.7 -299.9 116 -279.9C149.2 -259.9 174.4 -232.2 206.8 -206.8C239.3 -181.4 279 -158.3 299.8 -124.2C320.6 -90.1 322.6 -45 324.5 0L0 0Z" fill="#d8f6f7"></path><path d="M0 -270.4C34.5 -260.2 68.9 -249.9 96.6 -233.3C124.3 -216.6 145.3 -193.5 172.4 -172.4C199.4 -151.2 232.5 -131.9 249.8 -103.5C267.2 -75.1 268.8 -37.5 270.4 0L0 0Z" fill="#c8f2f4"></path><path d="M0 -216.3C27.6 -208.1 55.1 -200 77.3 -186.6C99.5 -173.3 116.3 -154.8 137.9 -137.9C159.5 -120.9 186 -105.5 199.9 -82.8C213.7 -60.1 215 -30 216.3 0L0 0Z" fill="#b7eff1"></path><path d="M0 -162.2C20.7 -156.1 41.3 -150 58 -140C74.6 -130 87.2 -116.1 103.4 -103.4C119.6 -90.7 139.5 -79.1 149.9 -62.1C160.3 -45 161.3 -22.5 162.2 0L0 0Z" fill="#a5ebee"></path><path d="M0 -108.2C13.8 -104.1 27.6 -100 38.7 -93.3C49.7 -86.6 58.1 -77.4 68.9 -68.9C79.8 -60.5 93 -52.8 99.9 -41.4C106.9 -30 107.5 -15 108.2 0L0 0Z" fill="#92e7eb"></path><path d="M0 -54.1C6.9 -52 13.8 -50 19.3 -46.7C24.9 -43.3 29.1 -38.7 34.5 -34.5C39.9 -30.2 46.5 -26.4 50 -20.7C53.4 -15 53.8 -7.5 54.1 0L0 0Z" fill="#88e5ea"></path></g></svg>