<svg id="visual" viewBox="0 0 900 600" width="900" height="600" xmlns="http://www.w3.org/2000/svg" xmlns:xlink="http://www.w3.org/1999/xlink" version="1.1"><rect x="0" y="0" width="900" height="600" fill="#ffffff"></rect><defs><linearGradient id="grad1_0" x1="33.3%" y1="100%" x2="100%" y2="0%"><stop offset="20%" stop-color="#42cbce" stop-opacity="1"></stop><stop offset="80%" stop-color="#42cbce" stop-opacity="1"></stop></linearGradient></defs><defs><linearGradient id="grad1_1" x1="33.3%" y1="100%" x2="100%" y2="0%"><stop offset="20%" stop-color="#42cbce" stop-opacity="1"></stop><stop offset="80%" stop-color="#69d3d5" stop-opacity="1"></stop></linearGradient></defs><defs><linearGradient id="grad1_2" x1="33.3%" y1="100%" x2="100%" y2="0%"><stop offset="20%" stop-color="#87dadc" stop-opacity="1"></stop><stop offset="80%" stop-color="#69d3d5" stop-opacity="1"></stop></linearGradient></defs><defs><linearGradient id="grad1_3" x1="33.3%" y1="100%" x2="100%" y2="0%"><stop offset="20%" stop-color="#87dadc" stop-opacity="1"></stop><stop offset="80%" stop-color="#a1e2e3" stop-opacity="1"></stop></linearGradient></defs><defs><linearGradient id="grad1_4" x1="33.3%" y1="100%" x2="100%" y2="0%"><stop offset="20%" stop-color="#bae9ea" stop-opacity="1"></stop><stop offset="80%" stop-color="#a1e2e3" stop-opacity="1"></stop></linearGradient></defs><defs><linearGradient id="grad1_5" x1="33.3%" y1="100%" x2="100%" y2="0%"><stop offset="20%" stop-color="#bae9ea" stop-opacity="1"></stop><stop offset="80%" stop-color="#d2f1f1" stop-opacity="1"></stop></linearGradient></defs><defs><linearGradient id="grad1_6" x1="33.3%" y1="100%" x2="100%" y2="0%"><stop offset="20%" stop-color="#e9f8f8" stop-opacity="1"></stop><stop offset="80%" stop-color="#d2f1f1" stop-opacity="1"></stop></linearGradient></defs><defs><linearGradient id="grad1_7" x1="33.3%" y1="100%" x2="100%" y2="0%"><stop offset="20%" stop-color="#e9f8f8" stop-opacity="1"></stop><stop offset="80%" stop-color="#ffffff" stop-opacity="1"></stop></linearGradient></defs><defs><linearGradient id="grad2_0" x1="0%" y1="100%" x2="66.7%" y2="0%"><stop offset="20%" stop-color="#42cbce" stop-opacity="1"></stop><stop offset="80%" stop-color="#42cbce" stop-opacity="1"></stop></linearGradient></defs><defs><linearGradient id="grad2_1" x1="0%" y1="100%" x2="66.7%" y2="0%"><stop offset="20%" stop-color="#69d3d5" stop-opacity="1"></stop><stop offset="80%" stop-color="#42cbce" stop-opacity="1"></stop></linearGradient></defs><defs><linearGradient id="grad2_2" x1="0%" y1="100%" x2="66.7%" y2="0%"><stop offset="20%" stop-color="#69d3d5" stop-opacity="1"></stop><stop offset="80%" stop-color="#87dadc" stop-opacity="1"></stop></linearGradient></defs><defs><linearGradient id="grad2_3" x1="0%" y1="100%" x2="66.7%" y2="0%"><stop offset="20%" stop-color="#a1e2e3" stop-opacity="1"></stop><stop offset="80%" stop-color="#87dadc" stop-opacity="1"></stop></linearGradient></defs><defs><linearGradient id="grad2_4" x1="0%" y1="100%" x2="66.7%" y2="0%"><stop offset="20%" stop-color="#a1e2e3" stop-opacity="1"></stop><stop offset="80%" stop-color="#bae9ea" stop-opacity="1"></stop></linearGradient></defs><defs><linearGradient id="grad2_5" x1="0%" y1="100%" x2="66.7%" y2="0%"><stop offset="20%" stop-color="#d2f1f1" stop-opacity="1"></stop><stop offset="80%" stop-color="#bae9ea" stop-opacity="1"></stop></linearGradient></defs><defs><linearGradient id="grad2_6" x1="0%" y1="100%" x2="66.7%" y2="0%"><stop offset="20%" stop-color="#d2f1f1" stop-opacity="1"></stop><stop offset="80%" stop-color="#e9f8f8" stop-opacity="1"></stop></linearGradient></defs><defs><linearGradient id="grad2_7" x1="0%" y1="100%" x2="66.7%" y2="0%"><stop offset="20%" stop-color="#ffffff" stop-opacity="1"></stop><stop offset="80%" stop-color="#e9f8f8" stop-opacity="1"></stop></linearGradient></defs><g transform="translate(900, 600)"><path d="M-486.7 0C-484 -68.2 -481.2 -136.4 -449.7 -186.3C-418.2 -236.1 -358 -267.6 -311.8 -311.8C-265.7 -356.1 -233.7 -413.1 -184.1 -444.4C-134.4 -475.7 -67.2 -481.2 0 -486.7L0 0Z" fill="#f4fbfb"></path><path d="M-425.9 0C-423.5 -59.7 -421.1 -119.4 -393.5 -163C-365.9 -206.6 -313.2 -234.1 -272.9 -272.9C-232.5 -311.6 -204.5 -361.5 -161.1 -388.8C-117.6 -416.2 -58.8 -421.1 0 -425.9L0 0Z" fill="#ddf4f4"></path><path d="M-365.1 0C-363 -51.2 -360.9 -102.3 -337.3 -139.7C-313.6 -177.1 -268.5 -200.7 -233.9 -233.9C-199.3 -267.1 -175.3 -309.8 -138.1 -333.3C-100.8 -356.8 -50.4 -360.9 0 -365.1L0 0Z" fill="#c6eded"></path><path d="M-304.2 0C-302.5 -42.6 -300.8 -85.3 -281.1 -116.4C-261.4 -147.6 -223.7 -167.2 -194.9 -194.9C-166.1 -222.6 -146.1 -258.2 -115 -277.7C-84 -297.3 -42 -300.8 0 -304.2L0 0Z" fill="#aee6e6"></path><path d="M-243.4 0C-242 -34.1 -240.6 -68.2 -224.8 -93.1C-209.1 -118.1 -179 -133.8 -155.9 -155.9C-132.9 -178 -116.8 -206.6 -92 -222.2C-67.2 -237.8 -33.6 -240.6 0 -243.4L0 0Z" fill="#94dedf"></path><path d="M-182.5 0C-181.5 -25.6 -180.5 -51.2 -168.6 -69.9C-156.8 -88.5 -134.2 -100.3 -116.9 -116.9C-99.6 -133.5 -87.6 -154.9 -69 -166.6C-50.4 -178.4 -25.2 -180.5 0 -182.5L0 0Z" fill="#78d7d8"></path><path d="M-121.7 0C-121 -17.1 -120.3 -34.1 -112.4 -46.6C-104.5 -59 -89.5 -66.9 -78 -78C-66.4 -89 -58.4 -103.3 -46 -111.1C-33.6 -118.9 -16.8 -120.3 0 -121.7L0 0Z" fill="#57cfd1"></path><path d="M-60.8 0C-60.5 -8.5 -60.2 -17.1 -56.2 -23.3C-52.3 -29.5 -44.7 -33.4 -39 -39C-33.2 -44.5 -29.2 -51.6 -23 -55.5C-16.8 -59.5 -8.4 -60.2 0 -60.8L0 0Z" fill="#42cbce"></path></g><g transform="translate(0, 0)"><path d="M486.7 0C485.1 68.6 483.5 137.2 449.7 186.3C415.9 235.4 349.9 265 299.8 299.8C249.8 334.6 215.7 374.5 168.4 406.5C121.1 438.5 60.5 462.6 0 486.7L0 0Z" fill="#f4fbfb"></path><path d="M425.9 0C424.5 60 423.1 120 393.5 163C363.9 206 306.1 231.9 262.3 262.3C218.5 292.8 188.7 327.7 147.3 355.7C105.9 383.7 53 404.8 0 425.9L0 0Z" fill="#ddf4f4"></path><path d="M365.1 0C363.8 51.4 362.6 102.9 337.3 139.7C311.9 176.5 262.4 198.8 224.9 224.9C187.3 250.9 161.8 280.9 126.3 304.9C90.8 328.9 45.4 347 0 365.1L0 0Z" fill="#c6eded"></path><path d="M304.2 0C303.2 42.9 302.2 85.7 281.1 116.4C259.9 147.1 218.7 165.6 187.4 187.4C156.1 209.1 134.8 234.1 105.2 254.1C75.7 274.1 37.8 289.1 0 304.2L0 0Z" fill="#aee6e6"></path><path d="M243.4 0C242.6 34.3 241.8 68.6 224.8 93.1C207.9 117.7 174.9 132.5 149.9 149.9C124.9 167.3 107.8 187.2 84.2 203.3C60.5 219.3 30.3 231.3 0 243.4L0 0Z" fill="#94dedf"></path><path d="M182.5 0C181.9 25.7 181.3 51.4 168.6 69.9C156 88.3 131.2 99.4 112.4 112.4C93.7 125.5 80.9 140.4 63.1 152.4C45.4 164.4 22.7 173.5 0 182.5L0 0Z" fill="#78d7d8"></path><path d="M121.7 0C121.3 17.1 120.9 34.3 112.4 46.6C104 58.8 87.5 66.3 75 75C62.4 83.6 53.9 93.6 42.1 101.6C30.3 109.6 15.1 115.7 0 121.7L0 0Z" fill="#57cfd1"></path><path d="M60.8 0C60.6 8.6 60.4 17.1 56.2 23.3C52 29.4 43.7 33.1 37.5 37.5C31.2 41.8 27 46.8 21 50.8C15.1 54.8 7.6 57.8 0 60.8L0 0Z" fill="#42cbce"></path></g></svg>