<svg id="visual" viewBox="0 0 900 600" width="900" height="600" xmlns="http://www.w3.org/2000/svg" xmlns:xlink="http://www.w3.org/1999/xlink" version="1.1"><rect x="0" y="0" width="900" height="600" fill="#FFFFFF"></rect><defs><linearGradient id="grad1_0" x1="33.3%" y1="0%" x2="100%" y2="100%"><stop offset="20%" stop-color="#4278ef" stop-opacity="1"></stop><stop offset="80%" stop-color="#4278ef" stop-opacity="1"></stop></linearGradient></defs><defs><linearGradient id="grad1_1" x1="33.3%" y1="0%" x2="100%" y2="100%"><stop offset="20%" stop-color="#4278ef" stop-opacity="1"></stop><stop offset="80%" stop-color="#6a8af2" stop-opacity="1"></stop></linearGradient></defs><defs><linearGradient id="grad1_2" x1="33.3%" y1="0%" x2="100%" y2="100%"><stop offset="20%" stop-color="#899cf5" stop-opacity="1"></stop><stop offset="80%" stop-color="#6a8af2" stop-opacity="1"></stop></linearGradient></defs><defs><linearGradient id="grad1_3" x1="33.3%" y1="0%" x2="100%" y2="100%"><stop offset="20%" stop-color="#899cf5" stop-opacity="1"></stop><stop offset="80%" stop-color="#a3aff7" stop-opacity="1"></stop></linearGradient></defs><defs><linearGradient id="grad1_4" x1="33.3%" y1="0%" x2="100%" y2="100%"><stop offset="20%" stop-color="#bcc2fa" stop-opacity="1"></stop><stop offset="80%" stop-color="#a3aff7" stop-opacity="1"></stop></linearGradient></defs><defs><linearGradient id="grad1_5" x1="33.3%" y1="0%" x2="100%" y2="100%"><stop offset="20%" stop-color="#bcc2fa" stop-opacity="1"></stop><stop offset="80%" stop-color="#d3d6fc" stop-opacity="1"></stop></linearGradient></defs><defs><linearGradient id="grad1_6" x1="33.3%" y1="0%" x2="100%" y2="100%"><stop offset="20%" stop-color="#e9eafd" stop-opacity="1"></stop><stop offset="80%" stop-color="#d3d6fc" stop-opacity="1"></stop></linearGradient></defs><defs><linearGradient id="grad1_7" x1="33.3%" y1="0%" x2="100%" y2="100%"><stop offset="20%" stop-color="#e9eafd" stop-opacity="1"></stop><stop offset="80%" stop-color="#ffffff" stop-opacity="1"></stop></linearGradient></defs><defs><linearGradient id="grad2_0" x1="0%" y1="0%" x2="66.7%" y2="100%"><stop offset="20%" stop-color="#4278ef" stop-opacity="1"></stop><stop offset="80%" stop-color="#4278ef" stop-opacity="1"></stop></linearGradient></defs><defs><linearGradient id="grad2_1" x1="0%" y1="0%" x2="66.7%" y2="100%"><stop offset="20%" stop-color="#6a8af2" stop-opacity="1"></stop><stop offset="80%" stop-color="#4278ef" stop-opacity="1"></stop></linearGradient></defs><defs><linearGradient id="grad2_2" x1="0%" y1="0%" x2="66.7%" y2="100%"><stop offset="20%" stop-color="#6a8af2" stop-opacity="1"></stop><stop offset="80%" stop-color="#899cf5" stop-opacity="1"></stop></linearGradient></defs><defs><linearGradient id="grad2_3" x1="0%" y1="0%" x2="66.7%" y2="100%"><stop offset="20%" stop-color="#a3aff7" stop-opacity="1"></stop><stop offset="80%" stop-color="#899cf5" stop-opacity="1"></stop></linearGradient></defs><defs><linearGradient id="grad2_4" x1="0%" y1="0%" x2="66.7%" y2="100%"><stop offset="20%" stop-color="#a3aff7" stop-opacity="1"></stop><stop offset="80%" stop-color="#bcc2fa" stop-opacity="1"></stop></linearGradient></defs><defs><linearGradient id="grad2_5" x1="0%" y1="0%" x2="66.7%" y2="100%"><stop offset="20%" stop-color="#d3d6fc" stop-opacity="1"></stop><stop offset="80%" stop-color="#bcc2fa" stop-opacity="1"></stop></linearGradient></defs><defs><linearGradient id="grad2_6" x1="0%" y1="0%" x2="66.7%" y2="100%"><stop offset="20%" stop-color="#d3d6fc" stop-opacity="1"></stop><stop offset="80%" stop-color="#e9eafd" stop-opacity="1"></stop></linearGradient></defs><defs><linearGradient id="grad2_7" x1="0%" y1="0%" x2="66.7%" y2="100%"><stop offset="20%" stop-color="#ffffff" stop-opacity="1"></stop><stop offset="80%" stop-color="#e9eafd" stop-opacity="1"></stop></linearGradient></defs><g transform="translate(900, 0)"><path d="M0 486.7C-69.4 486.4 -138.9 486.1 -186.3 449.7C-233.7 413.3 -259 340.7 -288.5 288.5C-318 236.3 -351.5 204.3 -385.3 159.6C-419 114.9 -452.9 57.4 -486.7 0L0 0Z" fill="#f4f5fe"></path><path d="M0 425.9C-60.8 425.6 -121.5 425.4 -163 393.5C-204.5 361.6 -226.7 298.2 -252.4 252.4C-278.2 206.7 -307.6 178.7 -337.1 139.6C-366.6 100.5 -396.3 50.3 -425.9 0L0 0Z" fill="#dee0fd"></path><path d="M0 365.1C-52.1 364.8 -104.2 364.6 -139.7 337.3C-175.3 310 -194.3 255.6 -216.4 216.4C-238.5 177.2 -263.6 153.2 -288.9 119.7C-314.2 86.2 -339.6 43.1 -365.1 0L0 0Z" fill="#c7ccfb"></path><path d="M0 304.2C-43.4 304 -86.8 303.8 -116.4 281.1C-146 258.3 -161.9 213 -180.3 180.3C-198.7 147.7 -219.7 127.7 -240.8 99.7C-261.9 71.8 -283 35.9 -304.2 0L0 0Z" fill="#b0b9f8"></path><path d="M0 243.4C-34.7 243.2 -69.4 243.1 -93.1 224.8C-116.8 206.6 -129.5 170.4 -144.2 144.2C-159 118.1 -175.8 102.1 -192.6 79.8C-209.5 57.4 -226.4 28.7 -243.4 0L0 0Z" fill="#96a5f6"></path><path d="M0 182.5C-26 182.4 -52.1 182.3 -69.9 168.6C-87.6 155 -97.1 127.8 -108.2 108.2C-119.2 88.6 -131.8 76.6 -144.5 59.8C-157.1 43.1 -169.8 21.5 -182.5 0L0 0Z" fill="#7a93f3"></path><path d="M0 121.7C-17.4 121.6 -34.7 121.5 -46.6 112.4C-58.4 103.3 -64.8 85.2 -72.1 72.1C-79.5 59.1 -87.9 51.1 -96.3 39.9C-104.7 28.7 -113.2 14.4 -121.7 0L0 0Z" fill="#5881f0"></path><path d="M0 60.8C-8.7 60.8 -17.4 60.8 -23.3 56.2C-29.2 51.7 -32.4 42.6 -36.1 36.1C-39.7 29.5 -43.9 25.5 -48.2 19.9C-52.4 14.4 -56.6 7.2 -60.8 0L0 0Z" fill="#4278ef"></path></g><g transform="translate(0, 600)"><path d="M0 -486.7C46.2 -438.2 92.3 -389.7 154.6 -373.2C216.9 -356.8 295.3 -372.5 344.2 -344.2C393.1 -315.8 412.6 -243.4 431.5 -178.7C450.3 -114 468.5 -57 486.7 0L0 0Z" fill="#f4f5fe"></path><path d="M0 -425.9C40.4 -383.4 80.8 -341 135.3 -326.6C189.8 -312.2 258.3 -326 301.2 -301.2C344 -276.4 361 -213 377.5 -156.4C394 -99.8 410 -49.9 425.9 0L0 0Z" fill="#dee0fd"></path><path d="M0 -365.1C34.6 -328.7 69.2 -292.2 116 -279.9C162.7 -267.6 221.4 -279.4 258.1 -258.1C294.8 -236.9 309.4 -182.6 323.6 -134C337.7 -85.5 351.4 -42.8 365.1 0L0 0Z" fill="#c7ccfb"></path><path d="M0 -304.2C28.9 -273.9 57.7 -243.5 96.6 -233.3C135.5 -223 184.5 -232.8 215.1 -215.1C245.7 -197.4 257.9 -152.1 269.7 -111.7C281.4 -71.3 292.8 -35.6 304.2 0L0 0Z" fill="#b0b9f8"></path><path d="M0 -243.4C23.1 -219.1 46.2 -194.8 77.3 -186.6C108.4 -178.4 147.6 -186.3 172.1 -172.1C196.6 -157.9 206.3 -121.7 215.7 -89.4C225.2 -57 234.3 -28.5 243.4 0L0 0Z" fill="#96a5f6"></path><path d="M0 -182.5C17.3 -164.3 34.6 -146.1 58 -140C81.3 -133.8 110.7 -139.7 129.1 -129.1C147.4 -118.4 154.7 -91.3 161.8 -67C168.9 -42.8 175.7 -21.4 182.5 0L0 0Z" fill="#7a93f3"></path><path d="M0 -121.7C11.5 -109.6 23.1 -97.4 38.7 -93.3C54.2 -89.2 73.8 -93.1 86 -86C98.3 -79 103.1 -60.9 107.9 -44.7C112.6 -28.5 117.1 -14.3 121.7 0L0 0Z" fill="#5881f0"></path><path d="M0 -60.8C5.8 -54.8 11.5 -48.7 19.3 -46.7C27.1 -44.6 36.9 -46.6 43 -43C49.1 -39.5 51.6 -30.4 53.9 -22.3C56.3 -14.3 58.6 -7.1 60.8 0L0 0Z" fill="#4278ef"></path></g></svg>